<svg width="34" height="48" viewBox="0 0 34 48" fill="none" xmlns="http://www.w3.org/2000/svg">
<path d="M5.0805 28.7896C3.73307 28.7896 2.44082 29.3248 1.48804 30.2776C0.535266 31.2304 0 32.5226 0 33.8701V35.0555C0 39.4755 2.0322 42.6763 5.2634 44.6848C8.39638 46.6323 12.5658 47.4181 16.935 47.4181C21.3279 47.4181 25.4973 46.6357 28.6269 44.6848C31.8581 42.6763 33.87 39.4688 33.87 35.0555V33.8701C33.87 32.5226 33.3348 31.2304 32.382 30.2776C31.4292 29.3248 30.1369 28.7896 28.7895 28.7896H5.0805Z" fill="url(#paint0_radial_2_109)"/>
<path d="M5.0805 28.7896C3.73307 28.7896 2.44082 29.3248 1.48804 30.2776C0.535266 31.2304 0 32.5226 0 33.8701V35.0555C0 39.4755 2.0322 42.6763 5.2634 44.6848C8.39638 46.6323 12.5658 47.4181 16.935 47.4181C21.3279 47.4181 25.4973 46.6357 28.6269 44.6848C31.8581 42.6763 33.87 39.4688 33.87 35.0555V33.8701C33.87 32.5226 33.3348 31.2304 32.382 30.2776C31.4292 29.3248 30.1369 28.7896 28.7895 28.7896H5.0805Z" fill="url(#paint1_linear_2_109)"/>
<path d="M18.6285 1.6935C18.6285 1.24436 18.4501 0.813608 18.1325 0.496015C17.8149 0.178422 17.3842 0 16.935 0C16.4859 0 16.0551 0.178422 15.7375 0.496015C15.4199 0.813608 15.2415 1.24436 15.2415 1.6935V5.0805H18.6285V1.6935Z" fill="url(#paint2_linear_2_109)"/>
<path d="M25.4025 3.38702C26.7499 3.38702 28.0422 3.92229 28.995 4.87507C29.9477 5.82785 30.483 7.12009 30.483 8.46753V18.6285C30.483 19.976 29.9477 21.2682 28.995 22.221C28.0422 23.1738 26.7499 23.709 25.4025 23.709H8.4675C7.12006 23.709 5.82782 23.1738 4.87504 22.221C3.92226 21.2682 3.38699 19.976 3.38699 18.6285V8.46753C3.38699 7.12009 3.92226 5.82785 4.87504 4.87507C5.82782 3.92229 7.12006 3.38702 8.4675 3.38702H25.4025Z" fill="url(#paint3_radial_2_109)"/>
<path d="M19.6397 19.0748C19.3455 19.5222 18.9448 19.8897 18.4737 20.1442C18.0026 20.3988 17.4756 20.5325 16.9401 20.5333C16.4046 20.5341 15.8772 20.4021 15.4053 20.149C14.9334 19.8959 14.5316 19.5297 14.236 19.0832L14.7994 18.7102C15.0333 19.0636 15.3512 19.3533 15.7246 19.5536C16.098 19.7538 16.5153 19.8583 16.939 19.8577C17.3628 19.857 17.7797 19.7512 18.1525 19.5498C18.5253 19.3484 18.8423 19.0576 19.0751 18.7036L19.6397 19.0748Z" fill="white"/>
<path d="M22.0155 11.0078C21.3418 11.0078 20.6957 11.2754 20.2193 11.7518C19.7429 12.2282 19.4753 12.8743 19.4753 13.548C19.4753 14.2217 19.7429 14.8678 20.2193 15.3442C20.6957 15.8206 21.3418 16.0883 22.0155 16.0883C22.6892 16.0883 23.3354 15.8206 23.8118 15.3442C24.2881 14.8678 24.5558 14.2217 24.5558 13.548C24.5558 12.8743 24.2881 12.2282 23.8118 11.7518C23.3354 11.2754 22.6892 11.0078 22.0155 11.0078Z" fill="url(#paint4_linear_2_109)"/>
<path d="M9.31427 13.548C9.31427 12.8743 9.5819 12.2282 10.0583 11.7518C10.5347 11.2754 11.1808 11.0078 11.8545 11.0078C12.5282 11.0078 13.1744 11.2754 13.6508 11.7518C14.1271 12.2282 14.3948 12.8743 14.3948 13.548C14.3948 14.2217 14.1271 14.8678 13.6508 15.3442C13.1744 15.8206 12.5282 16.0883 11.8545 16.0883C11.1808 16.0883 10.5347 15.8206 10.0583 15.3442C9.5819 14.8678 9.31427 14.2217 9.31427 13.548Z" fill="url(#paint5_linear_2_109)"/>
<defs>
<radialGradient id="paint0_radial_2_109" cx="0" cy="0" r="1" gradientUnits="userSpaceOnUse" gradientTransform="translate(-7.8172 23.0554) rotate(32.84) scale(48.3556 80.3939)">
<stop stop-color="#F08AF4"/>
<stop offset="0.535" stop-color="#9C6CFE"/>
<stop offset="1" stop-color="#4E44DB"/>
</radialGradient>
<linearGradient id="paint1_linear_2_109" x1="16.935" y1="26.5711" x2="26.0765" y2="57.6265" gradientUnits="userSpaceOnUse">
<stop stop-color="#885EDB" stop-opacity="0"/>
<stop offset="1" stop-color="#E362F8"/>
</linearGradient>
<linearGradient id="paint2_linear_2_109" x1="15.1636" y1="-2.13075e-08" x2="18.7369" y2="4.16263" gradientUnits="userSpaceOnUse">
<stop stop-color="#8B52F4"/>
<stop offset="1" stop-color="#3D35B1"/>
</linearGradient>
<radialGradient id="paint3_radial_2_109" cx="0" cy="0" r="1" gradientUnits="userSpaceOnUse" gradientTransform="translate(-2.64124 -6.19821) rotate(45) scale(45.6473 89.1053)">
<stop stop-color="#F08AF4"/>
<stop offset="0.535" stop-color="#9C6CFE"/>
<stop offset="1" stop-color="#4E44DB"/>
</radialGradient>
<linearGradient id="paint4_linear_2_109" x1="20.6811" y1="11.2042" x2="24.5321" y2="17.8495" gradientUnits="userSpaceOnUse">
<stop stop-color="#FDFDFD"/>
<stop offset="1" stop-color="#F9DCFA"/>
</linearGradient>
<linearGradient id="paint5_linear_2_109" x1="10.52" y1="11.2042" x2="14.3711" y2="17.8495" gradientUnits="userSpaceOnUse">
<stop stop-color="#FDFDFD"/>
<stop offset="1" stop-color="#F9DCFA"/>
</linearGradient>
</defs>
</svg>
